<svg width="20" height="20" viewBox="0 0 20 20" fill="none" xmlns="http://www.w3.org/2000/svg">
<path d="M11.9946 11.998L7.99463 7.99805" stroke="white" stroke-width="1.66667" stroke-linecap="round" stroke-linejoin="round"/>
<path d="M15.5429 17.9045C15.2304 18.2171 14.8065 18.3928 14.3645 18.3929C13.9224 18.3929 13.4985 18.2174 13.1859 17.9049C12.8732 17.5924 12.6976 17.1685 12.6975 16.7265C12.6974 16.2844 12.8729 15.8604 13.1854 15.5478L11.7129 17.0212C11.4003 17.3338 10.9763 17.5094 10.5342 17.5094C10.0921 17.5094 9.66807 17.3338 9.35544 17.0212C9.04282 16.7085 8.86719 16.2845 8.86719 15.8424C8.86719 15.4003 9.04282 14.9763 9.35544 14.6637L14.6588 9.36032C14.9714 9.0477 15.3954 8.87207 15.8375 8.87207C16.2796 8.87207 16.7037 9.0477 17.0163 9.36032C17.3289 9.67295 17.5045 10.097 17.5045 10.5391C17.5045 10.9812 17.3289 11.4052 17.0163 11.7178L15.5429 13.1903C15.8556 12.8778 16.2795 12.7023 16.7216 12.7024C17.1636 12.7024 17.5875 12.8781 17.9 13.1907C18.2125 13.5034 18.3881 13.9273 18.388 14.3694C18.3879 14.8114 18.2122 15.2353 17.8996 15.5478L15.5429 17.9045Z" stroke="white" stroke-width="1.66667" stroke-linecap="round" stroke-linejoin="round"/>
<path d="M17.9113 17.9147L16.7446 16.748" stroke="white" stroke-width="1.66667" stroke-linecap="round" stroke-linejoin="round"/>
<path d="M3.25016 3.25163L2.0835 2.08496" stroke="white" stroke-width="1.66667" stroke-linecap="round" stroke-linejoin="round"/>
<path d="M5.34396 10.639C5.03133 10.9516 4.60732 11.1272 4.16521 11.1272C3.72309 11.1272 3.29908 10.9516 2.98646 10.639C2.67383 10.3264 2.4982 9.90236 2.4982 9.46024C2.4982 9.01812 2.67383 8.59411 2.98646 8.28149L4.45979 6.80899C4.30499 6.96373 4.12123 7.08647 3.91901 7.17019C3.71678 7.25391 3.50004 7.29699 3.28116 7.29695C2.83912 7.29687 2.41522 7.1212 2.10271 6.80857C1.94796 6.65378 1.82523 6.47002 1.7415 6.26779C1.65778 6.06556 1.61471 5.84882 1.61475 5.62994C1.61482 5.1879 1.7905 4.764 2.10312 4.45149L4.45979 2.09482C4.7723 1.7822 5.19621 1.60652 5.63824 1.60645C5.85712 1.60641 6.07386 1.64948 6.27609 1.7332C6.47832 1.81693 6.66208 1.93966 6.81687 2.0944C6.97167 2.24915 7.09447 2.43286 7.17826 2.63506C7.26206 2.83726 7.30521 3.05398 7.30525 3.27286C7.30529 3.49174 7.26221 3.70848 7.17849 3.9107C7.09477 4.11293 6.97203 4.29669 6.81729 4.45149L8.28979 2.97815C8.60241 2.66553 9.02642 2.4899 9.46854 2.4899C9.91066 2.4899 10.3347 2.66553 10.6473 2.97815C10.9599 3.29078 11.1355 3.71479 11.1355 4.1569C11.1355 4.59902 10.9599 5.02303 10.6473 5.33565L5.34396 10.639Z" stroke="white" stroke-width="1.66667" stroke-linecap="round" stroke-linejoin="round"/>
</svg>
