<svg width="13" height="16" viewBox="0 0 13 16" fill="none" xmlns="http://www.w3.org/2000/svg">
<path d="M3.77058 15.4998C0.697421 13.7677 -0.111678 12.1283 0.350907 9.88929C0.692408 8.23596 1.81063 6.89081 1.91786 5.24065C2.39553 6.10992 2.59512 6.73674 2.64849 7.64512C4.16773 5.78376 5.17168 3.20698 5.23112 0.500244C5.23112 0.500244 9.18818 2.82529 9.44784 6.3373C9.78849 5.61342 9.95997 4.46372 9.61932 3.71859C10.6412 4.46375 16.6228 11.0788 8.80912 15.4998C10.2782 12.6394 9.18811 8.77984 6.63745 6.99731C6.8078 7.76377 6.50914 10.6225 5.38072 11.8786C5.69338 9.77971 5.08323 8.89221 5.08323 8.89221C5.08323 8.89221 4.87381 10.0678 4.06129 11.2554C3.31931 12.3399 2.8052 13.491 3.77058 15.4998Z" fill="white"/>
</svg>
