<svg width="21" height="20" viewBox="0 0 21 20" fill="none" xmlns="http://www.w3.org/2000/svg">
<path d="M11.9395 6.5151C11.869 6.23304 11.6133 6.03685 11.3226 6.04178C11.0319 6.0467 10.783 6.25144 10.722 6.53573L9.98219 9.98837L9.43181 8.15376C9.35818 7.90833 9.1422 7.7327 8.88691 7.71067C8.63162 7.68863 8.38875 7.82466 8.27415 8.05385L7.61357 9.37502H6.33317C5.98799 9.37502 5.70817 9.65484 5.70817 10C5.70817 10.3452 5.98799 10.625 6.33317 10.625H7.99984C8.23657 10.625 8.45298 10.4913 8.55885 10.2795L8.68739 10.0225L9.48453 12.6796C9.56652 12.9529 9.82318 13.136 10.1083 13.1245C10.3934 13.1131 10.6345 12.91 10.6943 12.631L11.38 9.43098L11.5602 10.1516C11.6297 10.4298 11.8797 10.625 12.1665 10.625H14.6665C15.0117 10.625 15.2915 10.3452 15.2915 10C15.2915 9.65484 15.0117 9.37502 14.6665 9.37502H12.6545L11.9395 6.5151Z" fill="white"/>
<path fill-rule="evenodd" clip-rule="evenodd" d="M9.75671 16.8816C10.2209 17.1506 10.7788 17.1506 11.243 16.8816C13.1014 15.8045 17.8601 12.7512 18.6736 9.30666C19.4081 6.19632 17.5439 2.96458 14.3872 2.91813C14.3221 2.91717 14.256 2.91669 14.1889 2.91669C12.9181 2.91669 11.7836 3.55141 11.1185 4.02068C10.7551 4.27705 10.2445 4.27705 9.88117 4.02068C9.21607 3.55141 8.08158 2.91669 6.81081 2.91669C6.74372 2.91669 6.67759 2.91717 6.61243 2.91813C3.45574 2.96458 1.5916 6.19632 2.32611 9.30666C3.13954 12.7512 7.89826 15.8045 9.75671 16.8816ZM17.457 9.01938C17.1442 10.344 16.0074 11.7504 14.5287 13.0398C13.0901 14.294 11.5122 15.2808 10.6162 15.8001C10.5397 15.8444 10.46 15.8444 10.3835 15.8001C9.48747 15.2808 7.90953 14.294 6.47102 13.0398C4.99224 11.7504 3.85547 10.344 3.54265 9.01938C2.93267 6.43636 4.51146 4.19918 6.63082 4.168C6.68978 4.16713 6.74977 4.16669 6.81081 4.16669C7.69514 4.16669 8.56897 4.62466 9.16054 5.04205C9.95596 5.60326 11.0437 5.60326 11.8391 5.04205C12.4307 4.62466 13.3045 4.16669 14.1889 4.16669C14.2499 4.16669 14.3099 4.16713 14.3689 4.168C16.4882 4.19918 18.067 6.43635 17.457 9.01938Z" fill="white"/>
</svg>
