<svg width="25" height="25" viewBox="0 0 25 25" fill="none" xmlns="http://www.w3.org/2000/svg">
<path d="M13.8834 1.82055C13.7882 1.74144 13.6754 1.68637 13.5545 1.65997C13.4337 1.63358 13.3082 1.63664 13.1887 1.66889C13.0693 1.70115 12.9593 1.76165 12.8681 1.84531C12.7769 1.92896 12.7072 2.03331 12.6648 2.14956L10.5422 7.97811L8.21112 5.71944C8.13284 5.64351 8.03935 5.58503 7.93683 5.54786C7.8343 5.51069 7.72506 5.49566 7.61631 5.50378C7.50755 5.51189 7.40175 5.54296 7.30588 5.59493C7.21 5.6469 7.12623 5.7186 7.06008 5.80531C4.97025 8.5435 3.90894 11.2981 3.90894 13.9919C3.90894 16.2437 4.80347 18.4033 6.39575 19.9956C7.98804 21.5879 10.1476 22.4824 12.3995 22.4824C14.6513 22.4824 16.8109 21.5879 18.4032 19.9956C19.9955 18.4033 20.89 16.2437 20.89 13.9919C20.89 8.25598 15.9896 3.57172 13.8834 1.82055ZM12.3995 20.9387C10.5577 20.9367 8.79193 20.2041 7.48959 18.9018C6.18726 17.5994 5.45471 15.8337 5.45267 13.9919C5.45267 11.8693 6.23322 9.67043 7.77405 7.44649L10.3183 9.91453C10.4107 10.0043 10.5241 10.0695 10.6481 10.1041C10.7722 10.1388 10.9029 10.1419 11.0285 10.1132C11.154 10.0844 11.2704 10.0247 11.3669 9.93941C11.4635 9.85416 11.5372 9.7461 11.5813 9.62508L13.73 3.73285C15.8931 5.70207 19.3463 9.545 19.3463 13.9919C19.3442 15.8337 18.6117 17.5994 17.3093 18.9018C16.007 20.2041 14.2412 20.9367 12.3995 20.9387Z" fill="white"/>
</svg>
