<svg width="20" height="20" viewBox="0 0 20 20" fill="none" xmlns="http://www.w3.org/2000/svg">
<path fill-rule="evenodd" clip-rule="evenodd" d="M13.3334 5H15.3822C16.6043 5 17.6472 5.88353 17.8482 7.089C18.1021 8.61283 16.927 10 15.3822 10H4.61781C3.07296 10 1.89785 8.61283 2.15182 7.089C2.35273 5.88353 3.39571 5 4.61781 5H6.66675C6.04175 5 6.04175 4.99958 6.04175 4.99916L6.04175 4.99825L6.04176 4.99626L6.0418 4.99157L6.04199 4.97939C6.0422 4.97004 6.04255 4.95825 6.04318 4.94417C6.04443 4.91604 6.04676 4.87866 6.05107 4.83332C6.05969 4.74287 6.07635 4.61943 6.10872 4.47379C6.17308 4.18414 6.30217 3.79513 6.56338 3.40331C7.11014 2.58318 8.15135 1.875 10.0001 1.875C11.8488 1.875 12.89 2.58318 13.4368 3.40331C13.698 3.79513 13.8271 4.18414 13.8914 4.47379C13.9238 4.61943 13.9405 4.74287 13.9491 4.83332C13.9534 4.87866 13.9557 4.91604 13.957 4.94417C13.9576 4.95825 13.958 4.97004 13.9582 4.97939L13.9584 4.99157L13.9584 4.99626L13.9584 4.99825L13.9584 4.99916C13.9584 4.99958 13.9584 5 13.3334 5ZM12.7082 4.99968C12.7078 4.99118 12.7069 4.97486 12.7047 4.95183C12.7003 4.90557 12.6909 4.8337 12.6712 4.74496C12.6314 4.56586 12.5522 4.32987 12.3967 4.09669C12.1101 3.66682 11.4847 3.125 10.0001 3.125C8.51548 3.125 7.89003 3.66682 7.60345 4.09669C7.44799 4.32987 7.36875 4.56586 7.32895 4.74496C7.30923 4.8337 7.29985 4.90557 7.29544 4.95183C7.29325 4.97486 7.29232 4.99118 7.29195 4.99968H12.7082Z" fill="white"/>
<path fill-rule="evenodd" clip-rule="evenodd" d="M3.45339 12.5061L3.75794 14.638C3.99254 16.2801 5.39894 17.4999 7.05777 17.4999H12.9425C14.6013 17.4999 16.0077 16.2801 16.2423 14.638L16.5469 12.5061C16.6127 12.0448 16.2876 11.6192 15.8253 11.5614L10.4136 10.8849C10.139 10.8506 9.86124 10.8506 9.58667 10.8849L4.17499 11.5614C3.71263 11.6192 3.3875 12.0448 3.45339 12.5061ZM10.6251 12.0833C10.6251 11.7381 10.3453 11.4583 10.0001 11.4583C9.6549 11.4583 9.37508 11.7381 9.37508 12.0833V13.1249H8.33341C7.98824 13.1249 7.70841 13.4048 7.70841 13.7499C7.70841 14.0951 7.98824 14.3749 8.33341 14.3749H9.37508V15.4166C9.37508 15.7618 9.6549 16.0416 10.0001 16.0416C10.3453 16.0416 10.6251 15.7618 10.6251 15.4166V14.3749H11.6667C12.0119 14.3749 12.2917 14.0951 12.2917 13.7499C12.2917 13.4048 12.0119 13.1249 11.6667 13.1249H10.6251V12.0833Z" fill="white"/>
</svg>
