<svg width="148" height="58" viewBox="0 0 148 58" fill="none" xmlns="http://www.w3.org/2000/svg">
<path d="M143.067 0.554688C143.384 0.554688 143.7 0.554688 144.026 0.554688C144.102 1.02352 144.178 1.49236 144.257 1.97541C144.857 5.5002 145.596 8.83995 146.753 12.2227C150.28 22.9125 145.54 34.6638 140.94 44.3551C138.453 49.125 135.378 53.8312 131.56 57.6253C131.401 57.6253 131.243 57.6253 131.08 57.6253C131.347 51.6145 131.347 51.6145 132.309 49.0707C133.326 46.2536 133.664 43.647 132.419 40.8468C131.947 39.9991 131.455 39.1622 130.938 38.3416C128.258 33.3755 127.944 28.903 128.053 23.3769C128.059 22.6568 128.064 21.9366 128.067 21.2165C128.124 15.0849 128.124 15.0849 128.683 12.6459C129.61 11.9696 129.61 11.9696 130.81 11.4972C135.491 9.37868 140.728 5.27457 143.067 0.554688Z" fill="#EE4165"/>
<path d="M4.97343 0.554688C5.28989 0.554688 5.60636 0.554688 5.93241 0.554688C6.5917 1.35384 6.5917 1.35384 7.37087 2.45906C10.6686 6.83905 15.0605 10.8785 20.317 12.6459C20.7846 16.4488 20.8843 20.2125 20.8864 24.0419C20.8923 24.6064 20.8982 25.171 20.9042 25.7526C20.9118 30.2746 20.4865 33.9593 18.3991 38.0072C18.0282 38.7395 18.0282 38.7395 17.6499 39.4865C16.9606 40.6975 16.9606 40.6975 16.0016 41.6648C15.4483 45.5326 16.2888 48.9794 17.5 52.632C17.9506 54.3584 17.9911 55.8479 17.9196 57.6253C7.53192 49.3745 2.55615 33.5187 0.942743 20.781C0.764507 15.6123 2.18718 9.5611 4.49395 4.90753C4.60168 4.16431 4.68956 3.41804 4.76366 2.67065C4.80383 2.27538 4.84401 1.88011 4.8854 1.47286C4.91445 1.16987 4.9435 0.866868 4.97343 0.554688Z" fill="#EE4165"/>
</svg>
