<svg width="25" height="25" viewBox="0 0 25 25" fill="none" xmlns="http://www.w3.org/2000/svg">
<path d="M8.92609 10.1006C8.39178 10.1006 7.86947 10.259 7.4252 10.5559C6.98094 10.8527 6.63468 11.2746 6.43021 11.7683C6.22573 12.2619 6.17223 12.8051 6.27647 13.3291C6.38071 13.8532 6.63801 14.3346 7.01582 14.7124C7.39364 15.0902 7.87501 15.3475 8.39905 15.4517C8.9231 15.556 9.46629 15.5025 9.95993 15.298C10.4536 15.0935 10.8755 14.7473 11.1723 14.303C11.4692 13.8587 11.6276 13.3364 11.6276 12.8021C11.6276 12.0856 11.343 11.3985 10.8364 10.8918C10.3297 10.3852 9.64258 10.1006 8.92609 10.1006ZM8.92609 13.9599C8.6971 13.9599 8.47326 13.892 8.28286 13.7648C8.09246 13.6376 7.94406 13.4567 7.85643 13.2452C7.7688 13.0336 7.74587 12.8008 7.79054 12.5762C7.83522 12.3516 7.94549 12.1453 8.10741 11.9834C8.26933 11.8215 8.47563 11.7112 8.70022 11.6665C8.92481 11.6219 9.1576 11.6448 9.36916 11.7324C9.58073 11.8201 9.76155 11.9685 9.88877 12.1589C10.016 12.3493 10.0839 12.5731 10.0839 12.8021C10.0839 13.1092 9.96191 13.4037 9.74478 13.6208C9.52765 13.8379 9.23316 13.9599 8.92609 13.9599ZM15.8729 10.1006C15.3386 10.1006 14.8163 10.259 14.372 10.5559C13.9277 10.8527 13.5815 11.2746 13.377 11.7683C13.1725 12.2619 13.119 12.8051 13.2233 13.3291C13.3275 13.8532 13.5848 14.3346 13.9626 14.7124C14.3404 15.0902 14.8218 15.3475 15.3458 15.4517C15.8699 15.556 16.4131 15.5025 16.9067 15.298C17.4004 15.0935 17.8223 14.7473 18.1191 14.303C18.416 13.8587 18.5744 13.3364 18.5744 12.8021C18.5744 12.0856 18.2898 11.3985 17.7832 10.8918C17.2765 10.3852 16.5894 10.1006 15.8729 10.1006ZM15.8729 13.9599C15.6439 13.9599 15.42 13.892 15.2296 13.7648C15.0393 13.6376 14.8909 13.4567 14.8032 13.2452C14.7156 13.0336 14.6927 12.8008 14.7373 12.5762C14.782 12.3516 14.8923 12.1453 15.0542 11.9834C15.2161 11.8215 15.4224 11.7112 15.647 11.6665C15.8716 11.6219 16.1044 11.6448 16.316 11.7324C16.5275 11.8201 16.7083 11.9685 16.8356 12.1589C16.9628 12.3493 17.0307 12.5731 17.0307 12.8021C17.0307 13.1092 16.9087 13.4037 16.6916 13.6208C16.4744 13.8379 16.18 13.9599 15.8729 13.9599ZM12.3995 1.61005C6.86618 1.61005 2.36523 5.93828 2.36523 11.2584C2.36523 14.5484 4.12798 17.6263 6.99643 19.39V20.9067C6.99643 21.3161 7.15907 21.7088 7.44858 21.9983C7.73808 22.2878 8.13074 22.4504 8.54016 22.4504H16.2588C16.6682 22.4504 17.0609 22.2878 17.3504 21.9983C17.6399 21.7088 17.8026 21.3161 17.8026 20.9067V19.39C20.671 17.6263 22.4337 14.5484 22.4337 11.2584C22.4337 5.93828 17.9328 1.61005 12.3995 1.61005ZM16.6563 18.2717C16.5358 18.3386 16.4354 18.4365 16.3655 18.5552C16.2956 18.674 16.2588 18.8093 16.2588 18.9471V20.9067H14.7151V18.5911C14.7151 18.3864 14.6338 18.1901 14.489 18.0453C14.3443 17.9006 14.1479 17.8192 13.9432 17.8192C13.7385 17.8192 13.5422 17.9006 13.3974 18.0453C13.2527 18.1901 13.1714 18.3864 13.1714 18.5911V20.9067H11.6276V18.5911C11.6276 18.3864 11.5463 18.1901 11.4016 18.0453C11.2568 17.9006 11.0605 17.8192 10.8558 17.8192C10.651 17.8192 10.4547 17.9006 10.31 18.0453C10.1652 18.1901 10.0839 18.3864 10.0839 18.5911V20.9067H8.54016V18.9471C8.54023 18.8093 8.5034 18.674 8.4335 18.5552C8.36359 18.4365 8.26317 18.3386 8.14265 18.2717C5.53085 16.8245 3.90897 14.1374 3.90897 11.2584C3.90897 6.78927 7.71812 3.15378 12.3995 3.15378C17.0809 3.15378 20.89 6.78927 20.89 11.2584C20.89 14.1365 19.2681 16.8245 16.6563 18.2717Z" fill="white"/>
</svg>
