<svg width="50" height="50" viewBox="0 0 50 50" fill="none" xmlns="http://www.w3.org/2000/svg">
<rect x="0.199707" y="0.466309" width="49.3994" height="49.3994" rx="24.6997" fill="white" fill-opacity="0.07"/>
<rect x="0.199707" y="0.466309" width="49.3994" height="49.3994" rx="24.6997" fill="url(#paint0_linear_7005_76549)" style="mix-blend-mode:overlay"/>
<path d="M21.4261 22.8504C20.8918 22.8504 20.3695 23.0088 19.9252 23.3057C19.4809 23.6025 19.1347 24.0244 18.9302 24.5181C18.7257 25.0117 18.6722 25.5549 18.7765 26.079C18.8807 26.603 19.138 27.0844 19.5158 27.4622C19.8936 27.84 20.375 28.0973 20.8991 28.2015C21.4231 28.3058 21.9663 28.2523 22.4599 28.0478C22.9536 27.8433 23.3755 27.4971 23.6723 27.0528C23.9692 26.6085 24.1276 26.0862 24.1276 25.5519C24.1276 24.8354 23.843 24.1483 23.3364 23.6416C22.8297 23.135 22.1426 22.8504 21.4261 22.8504ZM21.4261 26.7097C21.1971 26.7097 20.9733 26.6418 20.7829 26.5146C20.5925 26.3874 20.4441 26.2065 20.3564 25.995C20.2688 25.7834 20.2459 25.5506 20.2905 25.326C20.3352 25.1015 20.4455 24.8952 20.6074 24.7332C20.7693 24.5713 20.9756 24.461 21.2002 24.4164C21.4248 24.3717 21.6576 24.3946 21.8692 24.4823C22.0807 24.5699 22.2615 24.7183 22.3888 24.9087C22.516 25.0991 22.5839 25.3229 22.5839 25.5519C22.5839 25.859 22.4619 26.1535 22.2448 26.3706C22.0277 26.5877 21.7332 26.7097 21.4261 26.7097ZM28.3729 22.8504C27.8386 22.8504 27.3163 23.0088 26.872 23.3057C26.4277 23.6025 26.0815 24.0244 25.877 24.5181C25.6725 25.0117 25.619 25.5549 25.7233 26.079C25.8275 26.603 26.0848 27.0844 26.4626 27.4622C26.8404 27.84 27.3218 28.0973 27.8458 28.2015C28.3699 28.3058 28.9131 28.2523 29.4067 28.0478C29.9004 27.8433 30.3223 27.4971 30.6191 27.0528C30.916 26.6085 31.0744 26.0862 31.0744 25.5519C31.0744 24.8354 30.7898 24.1483 30.2832 23.6416C29.7765 23.135 29.0894 22.8504 28.3729 22.8504ZM28.3729 26.7097C28.1439 26.7097 27.92 26.6418 27.7296 26.5146C27.5393 26.3874 27.3909 26.2065 27.3032 25.995C27.2156 25.7834 27.1927 25.5506 27.2373 25.326C27.282 25.1015 27.3923 24.8952 27.5542 24.7332C27.7161 24.5713 27.9224 24.461 28.147 24.4164C28.3716 24.3717 28.6044 24.3946 28.816 24.4823C29.0275 24.5699 29.2083 24.7183 29.3356 24.9087C29.4628 25.0991 29.5307 25.3229 29.5307 25.5519C29.5307 25.859 29.4087 26.1535 29.1916 26.3706C28.9744 26.5877 28.68 26.7097 28.3729 26.7097ZM24.8995 14.3599C19.3662 14.3599 14.8652 18.6881 14.8652 24.0082C14.8652 27.2983 16.628 30.3761 19.4964 32.1398V33.6565C19.4964 34.0659 19.6591 34.4586 19.9486 34.7481C20.2381 35.0376 20.6307 35.2002 21.0402 35.2002H28.7588C29.1682 35.2002 29.5609 35.0376 29.8504 34.7481C30.1399 34.4586 30.3026 34.0659 30.3026 33.6565V32.1398C33.171 30.3761 34.9337 27.2983 34.9337 24.0082C34.9337 18.6881 30.4328 14.3599 24.8995 14.3599ZM29.1563 31.0216C29.0358 31.0884 28.9354 31.1863 28.8655 31.305C28.7956 31.4238 28.7588 31.5591 28.7588 31.6969V33.6565H27.2151V31.3409C27.2151 31.1362 27.1338 30.9399 26.989 30.7951C26.8443 30.6504 26.6479 30.569 26.4432 30.569C26.2385 30.569 26.0422 30.6504 25.8974 30.7951C25.7527 30.9399 25.6714 31.1362 25.6714 31.3409V33.6565H24.1276V31.3409C24.1276 31.1362 24.0463 30.9399 23.9016 30.7951C23.7568 30.6504 23.5605 30.569 23.3558 30.569C23.151 30.569 22.9547 30.6504 22.81 30.7951C22.6652 30.9399 22.5839 31.1362 22.5839 31.3409V33.6565H21.0402V31.6969C21.0402 31.5591 21.0034 31.4238 20.9335 31.305C20.8636 31.1863 20.7632 31.0884 20.6427 31.0216C18.0308 29.5743 16.409 26.8872 16.409 24.0082C16.409 19.5391 20.2181 15.9036 24.8995 15.9036C29.5809 15.9036 33.39 19.5391 33.39 24.0082C33.39 26.8863 31.7681 29.5743 29.1563 31.0216Z" fill="white"/>
<defs>
<linearGradient id="paint0_linear_7005_76549" x1="18.8789" y1="34.7305" x2="40.9508" y2="3.46849" gradientUnits="userSpaceOnUse">
<stop stop-color="white" stop-opacity="0"/>
<stop offset="1" stop-color="white"/>
</linearGradient>
</defs>
</svg>
