<svg width="26" height="25" viewBox="0 0 26 25" fill="none" xmlns="http://www.w3.org/2000/svg">
<path d="M11.8945 1.64218V0.870316C11.8945 0.665604 11.9758 0.469277 12.1205 0.324524C12.2653 0.179771 12.4616 0.0984497 12.6663 0.0984497C12.871 0.0984497 13.0674 0.179771 13.2121 0.324524C13.3569 0.469277 13.4382 0.665604 13.4382 0.870316V1.64218C13.4382 1.84689 13.3569 2.04322 13.2121 2.18797C13.0674 2.33273 12.871 2.41405 12.6663 2.41405C12.4616 2.41405 12.2653 2.33273 12.1205 2.18797C11.9758 2.04322 11.8945 1.84689 11.8945 1.64218ZM19.6131 4.72965C19.7145 4.72972 19.8149 4.70983 19.9086 4.67109C20.0023 4.63235 20.0875 4.57553 20.1592 4.50387L20.9311 3.73201C21.0759 3.58717 21.1573 3.39074 21.1573 3.18591C21.1573 2.98109 21.0759 2.78465 20.9311 2.63982C20.7863 2.49498 20.5898 2.41362 20.385 2.41362C20.1802 2.41362 19.9837 2.49498 19.8389 2.63982L19.067 3.41168C18.959 3.51963 18.8854 3.65722 18.8555 3.80703C18.8257 3.95684 18.841 4.11213 18.8994 4.25324C18.9579 4.39436 19.0569 4.51495 19.184 4.59976C19.311 4.68456 19.4604 4.72977 19.6131 4.72965ZM5.17345 4.50387C5.24516 4.57559 5.3303 4.63248 5.424 4.67129C5.5177 4.7101 5.61812 4.73007 5.71954 4.73007C5.82096 4.73007 5.92139 4.7101 6.01509 4.67129C6.10879 4.63248 6.19392 4.57559 6.26564 4.50387C6.33735 4.43216 6.39424 4.34702 6.43305 4.25332C6.47186 4.15962 6.49184 4.0592 6.49184 3.95778C6.49184 3.85636 6.47186 3.75593 6.43305 3.66223C6.39424 3.56854 6.33735 3.4834 6.26564 3.41168L5.49377 2.63982C5.34894 2.49498 5.1525 2.41362 4.94768 2.41362C4.74285 2.41362 4.54642 2.49498 4.40158 2.63982C4.25675 2.78465 4.17538 2.98109 4.17538 3.18591C4.17538 3.39074 4.25675 3.58717 4.40158 3.73201L5.17345 4.50387ZM13.5675 7.05586C13.4671 7.0381 13.3642 7.04041 13.2646 7.06266C13.1651 7.08491 13.071 7.12666 12.9877 7.18549C12.9045 7.24432 12.8337 7.31906 12.7794 7.40541C12.7252 7.49176 12.6886 7.588 12.6718 7.68857C12.655 7.78913 12.6582 7.89204 12.6814 7.99133C12.7046 8.09063 12.7472 8.18435 12.8068 8.26709C12.8664 8.34982 12.9418 8.41992 13.0286 8.47335C13.1155 8.52678 13.2121 8.56247 13.3128 8.57836C15.1431 8.88614 16.5257 10.5495 16.5257 12.4483C16.5257 12.653 16.607 12.8493 16.7517 12.9941C16.8965 13.1388 17.0928 13.2202 17.2975 13.2202C17.5022 13.2202 17.6986 13.1388 17.8433 12.9941C17.9881 12.8493 18.0694 12.653 18.0694 12.4483C18.0694 9.80466 16.133 7.48617 13.5656 7.05586H13.5675ZM22.7006 17.0795V19.3951C22.7006 19.8045 22.538 20.1972 22.2484 20.4867C21.9589 20.7762 21.5663 20.9388 21.1569 20.9388H4.17581C3.76639 20.9388 3.37373 20.7762 3.08423 20.4867C2.79472 20.1972 2.63208 19.8045 2.63208 19.3951V17.0795C2.63208 16.6701 2.79472 16.2774 3.08423 15.9879C3.37373 15.6984 3.76639 15.5358 4.17581 15.5358V12.4483C4.17578 11.3279 4.39752 10.2185 4.82824 9.18412C5.25897 8.14977 5.89016 7.21089 6.68544 6.42163C7.48072 5.63236 8.42435 5.0083 9.46194 4.58543C10.4995 4.16257 11.6106 3.94925 12.731 3.95778C17.3766 3.99251 21.1569 7.84509 21.1569 12.5448V15.5358C21.5663 15.5358 21.9589 15.6984 22.2484 15.9879C22.538 16.2774 22.7006 16.6701 22.7006 17.0795ZM5.71954 15.5358H19.6131V12.5448C19.6131 8.68546 16.5208 5.52949 12.7194 5.50151H12.6663C10.8239 5.50151 9.05699 6.2334 7.75421 7.53618C6.45144 8.83896 5.71954 10.6059 5.71954 12.4483V15.5358ZM21.1569 19.3951V17.0795H4.17581V19.3951H21.1569Z" fill="white"/>
</svg>
