<svg width="21" height="20" viewBox="0 0 21 20" fill="none" xmlns="http://www.w3.org/2000/svg">
<path d="M10.501 5.93749C9.6975 5.93749 8.91205 6.17575 8.24398 6.62215C7.5759 7.06854 7.0552 7.70302 6.74772 8.44534C6.44024 9.18767 6.35979 10.0045 6.51654 10.7925C6.6733 11.5806 7.06021 12.3045 7.62836 12.8726C8.19651 13.4408 8.92038 13.8277 9.70843 13.9844C10.4965 14.1412 11.3133 14.0607 12.0556 13.7533C12.798 13.4458 13.4324 12.9251 13.8788 12.257C14.3252 11.5889 14.5635 10.8035 14.5635 9.99999C14.5622 8.92293 14.1338 7.89034 13.3722 7.12874C12.6106 6.36714 11.578 5.93873 10.501 5.93749ZM10.501 12.1875C10.0683 12.1875 9.6454 12.0592 9.28567 11.8188C8.92594 11.5785 8.64556 11.2368 8.48 10.8371C8.31443 10.4374 8.27111 9.99757 8.35551 9.57323C8.43992 9.1489 8.64826 8.75912 8.95419 8.4532C9.26011 8.14727 9.64989 7.93893 10.0742 7.85452C10.4986 7.77012 10.9384 7.81344 11.3381 7.97901C11.7378 8.14457 12.0795 8.42495 12.3198 8.78468C12.5602 9.14441 12.6885 9.56735 12.6885 9.99999C12.6885 10.5802 12.458 11.1366 12.0478 11.5468C11.6375 11.957 11.0811 12.1875 10.501 12.1875ZM19.3963 8.31484C19.3699 8.18279 19.3153 8.05798 19.2363 7.94892C19.1573 7.83985 19.0557 7.74909 18.9385 7.6828L16.7674 6.44452L16.7588 3.99843C16.7583 3.86271 16.7284 3.72872 16.6711 3.6057C16.6137 3.48268 16.5304 3.37358 16.4268 3.28593C15.5518 2.54568 14.5445 1.97809 13.458 1.61327C13.3341 1.57147 13.2028 1.55606 13.0725 1.56803C12.9423 1.58001 12.816 1.6191 12.7018 1.68281L10.501 2.91171L8.3002 1.68202C8.18582 1.61797 8.05928 1.57862 7.92875 1.56651C7.79822 1.5544 7.6666 1.5698 7.54239 1.61171C6.45563 1.97805 5.44824 2.54722 4.57364 3.28906C4.47036 3.37661 4.38728 3.48549 4.33009 3.60822C4.27291 3.73094 4.24299 3.8646 4.24239 3.99999L4.23145 6.44843L2.06348 7.68359C1.94622 7.75012 1.8447 7.84117 1.76583 7.95051C1.68695 8.05985 1.63259 8.18492 1.60645 8.31718C1.38574 9.42899 1.38574 10.5733 1.60645 11.6851C1.6328 11.8171 1.68726 11.9419 1.76612 12.0509C1.84498 12.16 1.9464 12.2508 2.06348 12.3172L4.23692 13.5555L4.24551 16.0016C4.24599 16.1373 4.27592 16.2713 4.33325 16.3943C4.39057 16.5173 4.47393 16.6264 4.57754 16.7141C5.45246 17.4543 6.45985 18.0219 7.5463 18.3867C7.67023 18.4285 7.80153 18.4439 7.93178 18.4319C8.06202 18.42 8.18831 18.3809 8.30255 18.3172L10.501 17.0883L12.6994 18.318C12.8138 18.382 12.9403 18.4214 13.0709 18.4335C13.2014 18.4456 13.333 18.4302 13.4572 18.3883C14.544 18.0219 15.5514 17.4528 16.426 16.7109C16.5293 16.6234 16.6123 16.5145 16.6695 16.3918C16.7267 16.269 16.7566 16.1354 16.7572 16L16.7682 13.5516L18.9408 12.3164C19.0581 12.2499 19.1596 12.1588 19.2385 12.0495C19.3174 11.9401 19.3717 11.8151 19.3979 11.6828C19.6181 10.5709 19.6175 9.42654 19.3963 8.31484ZM17.6283 10.907L15.5283 12.1008C15.3791 12.1854 15.2561 12.3094 15.1729 12.4594C15.1307 12.5375 15.0861 12.6101 15.04 12.6844C14.9475 12.8322 14.8979 13.0029 14.8971 13.1773L14.8861 15.5469C14.3807 15.9272 13.8272 16.239 13.24 16.4742L11.119 15.2875C10.9791 15.2092 10.8215 15.168 10.6611 15.168H10.6385C10.5494 15.168 10.4588 15.168 10.3697 15.168C10.2022 15.164 10.0366 15.2047 9.89005 15.2859L7.76661 16.4703C7.17845 16.2363 6.62368 15.9258 6.11661 15.5469L6.10801 13.1844C6.10729 13.0097 6.05777 12.8387 5.96504 12.6906C5.91973 12.6172 5.87442 12.5414 5.83223 12.4656C5.7489 12.3166 5.6262 12.1934 5.47754 12.1094L3.37598 10.9086C3.29434 10.3061 3.29434 9.69542 3.37598 9.09296L5.47598 7.89921C5.62493 7.81465 5.74787 7.6909 5.83145 7.5414C5.87364 7.46327 5.91817 7.38984 5.96426 7.31562C6.05685 7.16779 6.10636 6.99707 6.10723 6.82265L6.11583 4.45312C6.62142 4.07388 7.17491 3.76312 7.76192 3.5289L9.88301 4.71562C10.0295 4.79781 10.1955 4.83885 10.3635 4.83437C10.4525 4.83437 10.5432 4.83437 10.6322 4.83437C10.7998 4.83833 10.9653 4.79761 11.1119 4.7164L13.2354 3.52968C13.8235 3.76371 14.3783 4.07419 14.8854 4.45312L14.894 6.81562C14.8947 6.99031 14.9442 7.16132 15.0369 7.30937C15.0822 7.3828 15.1275 7.45859 15.1697 7.53437C15.2531 7.68339 15.3758 7.80663 15.5244 7.89062L17.626 9.08827C17.7087 9.69165 17.7095 10.3034 17.6283 10.907Z" fill="white"/>
</svg>
