<svg width="227" height="102" viewBox="0 0 227 102" fill="none" xmlns="http://www.w3.org/2000/svg">
<path fill-rule="evenodd" clip-rule="evenodd" d="M92.8046 64.3959H95.9308V52.8557H102.755C109.615 52.8557 113.598 49.6937 113.598 43.2805C113.598 36.9923 109.49 34.0804 102.469 34.0804H92.8046V64.3959ZM95.9308 51.6052V35.2952H102.13C108.186 35.2952 110.311 37.689 110.311 43.3162C110.311 49.2293 108.221 51.6052 102.433 51.6052H95.9308ZM120.173 64.3959H138.001V63.1633H123.281V34.0626H120.173V64.3959ZM141.002 64.3959H142.431L145.933 54.6957H159.277L162.814 64.3959H166.101L155.008 34.0804H152.042L141.002 64.3959ZM152.596 36.4028L158.848 53.4988H146.397L152.596 36.4028ZM191.915 64.3959H193.594V34.0626H192.237V59.4654L173.711 34.0626H171.854V64.3959H173.175V38.5822L191.915 64.3959ZM220.766 68.3439H223.999L220.926 62.9668C224.821 60.6623 227 56.0534 227 49.2829C227 39.1717 222.159 33.7946 213.942 33.7946C205.67 33.7946 200.829 39.1717 200.829 49.2829C200.829 59.3761 205.67 64.6818 213.942 64.6818C215.531 64.6818 217.014 64.4853 218.336 64.1101L220.766 68.3439ZM213.942 63.4491C207.046 63.4491 204.206 59.1796 204.206 49.1935C204.206 39.2611 207.046 35.0272 213.942 35.0272C220.801 35.0272 223.678 39.1717 223.678 49.1935C223.678 55.3567 222.57 59.3404 220.105 61.5198L218.015 57.7862H214.763L217.675 62.9132C216.568 63.2884 215.335 63.4491 213.942 63.4491ZM70.921 30.0074C70.921 14.0011 57.898 0.978149 41.8917 0.978149C25.8854 0.978149 12.8803 14.0011 12.8803 30.0074C12.8803 46.0137 25.8854 59.0367 41.8917 59.0367C57.898 59.0367 70.921 46.0137 70.921 30.0074Z" fill="white"/>
<path fill-rule="evenodd" clip-rule="evenodd" d="M29.8153 58.6437L20.9546 97.7126H0.232199L6.6633 -0.00439453H33.799C20.5796 3.56844 10.8078 15.6625 10.8078 30.0074C10.8078 42.8696 18.6502 53.9275 29.8153 58.6437ZM13.416 99.2489L13.2195 102H0L0.196523 99.2489H13.416Z" fill="white"/>
</svg>
