<svg width="26" height="25" viewBox="0 0 26 25" fill="none" xmlns="http://www.w3.org/2000/svg">
<path d="M22.1081 9.98672C21.7443 9.60658 21.3681 9.21486 21.2262 8.87041C21.095 8.55491 21.0873 8.03197 21.0796 7.52543C21.0651 6.58376 21.0497 5.51665 20.3077 4.7747C19.5657 4.03274 18.4986 4.0173 17.557 4.00283C17.0504 3.99511 16.5275 3.98739 16.212 3.85618C15.8685 3.71435 15.4758 3.33806 15.0957 2.97432C14.4299 2.33464 13.6735 1.61005 12.6662 1.61005C11.6589 1.61005 10.9035 2.33464 10.2368 2.97432C9.85664 3.33806 9.46492 3.71435 9.12047 3.85618C8.8069 3.98739 8.28203 3.99511 7.77549 4.00283C6.83382 4.0173 5.76671 4.03274 5.02476 4.7747C4.2828 5.51665 4.27219 6.58376 4.25289 7.52543C4.24517 8.03197 4.23745 8.55491 4.10624 8.87041C3.96441 9.21389 3.58812 9.60658 3.22438 9.98672C2.5847 10.6525 1.86011 11.4089 1.86011 12.4162C1.86011 13.4235 2.5847 14.1789 3.22438 14.8456C3.58812 15.2258 3.96441 15.6175 4.10624 15.9619C4.23745 16.2774 4.24517 16.8004 4.25289 17.3069C4.26736 18.2486 4.2828 19.3157 5.02476 20.0576C5.76671 20.7996 6.83382 20.815 7.77549 20.8295C8.28203 20.8372 8.80497 20.8449 9.12047 20.9762C9.46395 21.118 9.85664 21.4943 10.2368 21.858C10.9025 22.4977 11.6589 23.2223 12.6662 23.2223C13.6735 23.2223 14.429 22.4977 15.0957 21.858C15.4758 21.4943 15.8675 21.118 16.212 20.9762C16.5275 20.8449 17.0504 20.8372 17.557 20.8295C18.4986 20.815 19.5657 20.7996 20.3077 20.0576C21.0497 19.3157 21.0651 18.2486 21.0796 17.3069C21.0873 16.8004 21.095 16.2774 21.2262 15.9619C21.3681 15.6184 21.7443 15.2258 22.1081 14.8456C22.7478 14.1799 23.4724 13.4235 23.4724 12.4162C23.4724 11.4089 22.7478 10.6534 22.1081 9.98672ZM20.9937 13.7775C20.5315 14.26 20.053 14.7588 19.7992 15.3715C19.5561 15.96 19.5455 16.6325 19.5358 17.2837C19.5262 17.9591 19.5156 18.6664 19.2155 18.9655C18.9154 19.2645 18.2131 19.2761 17.5338 19.2858C16.8825 19.2954 16.2101 19.306 15.6215 19.5492C15.0088 19.8029 14.51 20.2815 14.0276 20.7436C13.5452 21.2058 13.0522 21.6786 12.6662 21.6786C12.2803 21.6786 11.7834 21.2039 11.3049 20.7436C10.8263 20.2834 10.3236 19.8029 9.71095 19.5492C9.1224 19.306 8.44991 19.2954 7.79865 19.2858C7.12327 19.2761 6.41605 19.2655 6.11695 18.9655C5.81785 18.6654 5.80627 17.963 5.79662 17.2837C5.78698 16.6325 5.77636 15.96 5.53322 15.3715C5.27947 14.7588 4.80092 14.26 4.33876 13.7775C3.87661 13.2951 3.40384 12.8021 3.40384 12.4162C3.40384 12.0302 3.87854 11.5333 4.33876 11.0548C4.79899 10.5762 5.27947 10.0736 5.53322 9.46089C5.77636 8.87234 5.78698 8.19985 5.79662 7.54859C5.80627 6.87321 5.81688 6.16598 6.11695 5.86689C6.41701 5.56779 7.11941 5.55621 7.79865 5.54656C8.44991 5.53691 9.1224 5.5263 9.71095 5.28316C10.3236 5.02941 10.8224 4.55086 11.3049 4.0887C11.7873 3.62655 12.2803 3.15378 12.6662 3.15378C13.0522 3.15378 13.5491 3.62848 14.0276 4.0887C14.5062 4.54893 15.0088 5.02941 15.6215 5.28316C16.2101 5.5263 16.8825 5.53691 17.5338 5.54656C18.2092 5.55621 18.9164 5.56682 19.2155 5.86689C19.5146 6.16695 19.5262 6.86935 19.5358 7.54859C19.5455 8.19985 19.5561 8.87234 19.7992 9.46089C20.053 10.0736 20.5315 10.5724 20.9937 11.0548C21.4559 11.5372 21.9286 12.0302 21.9286 12.4162C21.9286 12.8021 21.4539 13.299 20.9937 13.7775ZM11.8944 13.188V7.78497C11.8944 7.58026 11.9757 7.38393 12.1204 7.23918C12.2652 7.09443 12.4615 7.01311 12.6662 7.01311C12.8709 7.01311 13.0673 7.09443 13.212 7.23918C13.3568 7.38393 13.4381 7.58026 13.4381 7.78497V13.188C13.4381 13.3927 13.3568 13.5891 13.212 13.7338C13.0673 13.8786 12.8709 13.9599 12.6662 13.9599C12.4615 13.9599 12.2652 13.8786 12.1204 13.7338C11.9757 13.5891 11.8944 13.3927 11.8944 13.188ZM13.824 16.6614C13.824 16.8904 13.7561 17.1143 13.6289 17.3047C13.5017 17.4951 13.3209 17.6435 13.1093 17.7311C12.8977 17.8187 12.6649 17.8417 12.4404 17.797C12.2158 17.7523 12.0095 17.642 11.8475 17.4801C11.6856 17.3182 11.5754 17.1119 11.5307 16.8873C11.486 16.6627 11.5089 16.4299 11.5966 16.2184C11.6842 16.0068 11.8326 15.826 12.023 15.6988C12.2134 15.5715 12.4372 15.5036 12.6662 15.5036C12.9733 15.5036 13.2678 15.6256 13.4849 15.8427C13.702 16.0599 13.824 16.3544 13.824 16.6614Z" fill="white"/>
</svg>
