<svg width="21" height="20" viewBox="0 0 21 20" fill="none" xmlns="http://www.w3.org/2000/svg">
<path fill-rule="evenodd" clip-rule="evenodd" d="M12.7097 13.0936L7.4064 7.79028L4.90206 10.2946C3.43759 11.7591 3.43759 14.1335 4.90206 15.5979C6.36653 17.0624 8.7409 17.0624 10.2054 15.5979L12.7097 13.0936ZM13.5936 12.2097L8.29028 6.9064L10.7946 4.40206C12.2591 2.93759 14.6335 2.93759 16.0979 4.40206C17.5624 5.86653 17.5624 8.2409 16.0979 9.70536L13.5936 12.2097ZM16.9818 10.5892C18.9344 8.63662 18.9344 5.4708 16.9818 3.51818C15.0292 1.56556 11.8634 1.56556 9.91073 3.51818L4.01818 9.41073C2.06556 11.3634 2.06556 14.5292 4.01818 16.4818C5.9708 18.4344 9.13662 18.4344 11.0892 16.4818L16.9818 10.5892Z" fill="white"/>
</svg>
