<svg width="50" height="50" viewBox="0 0 50 50" fill="none" xmlns="http://www.w3.org/2000/svg">
<rect x="0.466309" y="0.466309" width="49.3994" height="49.3994" rx="24.6997" fill="white" fill-opacity="0.07"/>
<rect x="0.466309" y="0.466309" width="49.3994" height="49.3994" rx="24.6997" fill="url(#paint0_linear_7005_76545)" style="mix-blend-mode:overlay"/>
<path d="M34.6078 22.7365C34.2441 22.3564 33.8678 21.9647 33.726 21.6202C33.5948 21.3047 33.587 20.7818 33.5793 20.2753C33.5649 19.3336 33.5494 18.2665 32.8075 17.5245C32.0655 16.7826 30.9984 16.7671 30.0567 16.7526C29.5502 16.7449 29.0272 16.7372 28.7117 16.606C28.3683 16.4642 27.9756 16.0879 27.5954 15.7241C26.9297 15.0845 26.1733 14.3599 25.166 14.3599C24.1587 14.3599 23.4032 15.0845 22.7365 15.7241C22.3564 16.0879 21.9647 16.4642 21.6202 16.606C21.3067 16.7372 20.7818 16.7449 20.2753 16.7526C19.3336 16.7671 18.2665 16.7826 17.5245 17.5245C16.7826 18.2665 16.7719 19.3336 16.7526 20.2753C16.7449 20.7818 16.7372 21.3047 16.606 21.6202C16.4642 21.9637 16.0879 22.3564 15.7241 22.7365C15.0845 23.4023 14.3599 24.1587 14.3599 25.166C14.3599 26.1733 15.0845 26.9287 15.7241 27.5954C16.0879 27.9756 16.4642 28.3673 16.606 28.7117C16.7372 29.0272 16.7449 29.5502 16.7526 30.0567C16.7671 30.9984 16.7826 32.0655 17.5245 32.8075C18.2665 33.5494 19.3336 33.5649 20.2753 33.5793C20.7818 33.587 21.3047 33.5948 21.6202 33.726C21.9637 33.8678 22.3564 34.2441 22.7365 34.6078C23.4023 35.2475 24.1587 35.9721 25.166 35.9721C26.1733 35.9721 26.9287 35.2475 27.5954 34.6078C27.9756 34.2441 28.3673 33.8678 28.7117 33.726C29.0272 33.5948 29.5502 33.587 30.0567 33.5793C30.9984 33.5649 32.0655 33.5494 32.8075 32.8075C33.5494 32.0655 33.5649 30.9984 33.5793 30.0567C33.587 29.5502 33.5948 29.0272 33.726 28.7117C33.8678 28.3683 34.2441 27.9756 34.6078 27.5954C35.2475 26.9297 35.9721 26.1733 35.9721 25.166C35.9721 24.1587 35.2475 23.4032 34.6078 22.7365ZM33.4935 26.5274C33.0313 27.0098 32.5527 27.5086 32.299 28.1213C32.0559 28.7098 32.0452 29.3823 32.0356 30.0336C32.0259 30.7089 32.0153 31.4162 31.7153 31.7153C31.4152 32.0144 30.7128 32.0259 30.0336 32.0356C29.3823 32.0452 28.7098 32.0559 28.1213 32.299C27.5086 32.5527 27.0098 33.0313 26.5274 33.4935C26.0449 33.9556 25.5519 34.4284 25.166 34.4284C24.7801 34.4284 24.2832 33.9537 23.8046 33.4935C23.3261 33.0332 22.8234 32.5527 22.2107 32.299C21.6222 32.0559 20.9497 32.0452 20.2984 32.0356C19.623 32.0259 18.9158 32.0153 18.6167 31.7153C18.3176 31.4152 18.306 30.7128 18.2964 30.0336C18.2867 29.3823 18.2761 28.7098 18.033 28.1213C17.7792 27.5086 17.3007 27.0098 16.8385 26.5274C16.3764 26.0449 15.9036 25.5519 15.9036 25.166C15.9036 24.7801 16.3783 24.2832 16.8385 23.8046C17.2987 23.3261 17.7792 22.8234 18.033 22.2107C18.2761 21.6222 18.2867 20.9497 18.2964 20.2984C18.306 19.623 18.3166 18.9158 18.6167 18.6167C18.9168 18.3176 19.6192 18.306 20.2984 18.2964C20.9497 18.2867 21.6222 18.2761 22.2107 18.033C22.8234 17.7792 23.3222 17.3007 23.8046 16.8385C24.287 16.3764 24.7801 15.9036 25.166 15.9036C25.5519 15.9036 26.0488 16.3783 26.5274 16.8385C27.0059 17.2987 27.5086 17.7792 28.1213 18.033C28.7098 18.2761 29.3823 18.2867 30.0336 18.2964C30.7089 18.306 31.4162 18.3166 31.7153 18.6167C32.0144 18.9168 32.0259 19.6192 32.0356 20.2984C32.0452 20.9497 32.0559 21.6222 32.299 22.2107C32.5527 22.8234 33.0313 23.3222 33.4935 23.8046C33.9556 24.287 34.4284 24.7801 34.4284 25.166C34.4284 25.5519 33.9537 26.0488 33.4935 26.5274ZM24.3941 25.9379V20.5348C24.3941 20.3301 24.4754 20.1338 24.6202 19.989C24.7649 19.8442 24.9613 19.7629 25.166 19.7629C25.3707 19.7629 25.567 19.8442 25.7118 19.989C25.8565 20.1338 25.9379 20.3301 25.9379 20.5348V25.9379C25.9379 26.1426 25.8565 26.3389 25.7118 26.4836C25.567 26.6284 25.3707 26.7097 25.166 26.7097C24.9613 26.7097 24.7649 26.6284 24.6202 26.4836C24.4754 26.3389 24.3941 26.1426 24.3941 25.9379ZM26.3238 29.4112C26.3238 29.6402 26.2559 29.8641 26.1287 30.0545C26.0014 30.2449 25.8206 30.3933 25.6091 30.4809C25.3975 30.5685 25.1647 30.5915 24.9401 30.5468C24.7155 30.5021 24.5092 30.3919 24.3473 30.2299C24.1854 30.068 24.0751 29.8617 24.0304 29.6371C23.9858 29.4125 24.0087 29.1797 24.0963 28.9682C24.184 28.7566 24.3323 28.5758 24.5227 28.4486C24.7131 28.3214 24.937 28.2534 25.166 28.2534C25.4731 28.2534 25.7675 28.3754 25.9847 28.5926C26.2018 28.8097 26.3238 29.1042 26.3238 29.4112Z" fill="white"/>
<defs>
<linearGradient id="paint0_linear_7005_76545" x1="19.1455" y1="34.7305" x2="41.2174" y2="3.46849" gradientUnits="userSpaceOnUse">
<stop stop-color="white" stop-opacity="0"/>
<stop offset="1" stop-color="white"/>
</linearGradient>
</defs>
</svg>
