<svg width="13" height="24" viewBox="0 0 13 24" fill="none" xmlns="http://www.w3.org/2000/svg">
<path d="M6.50041 4.59677C7.76918 4.59677 8.79795 3.5676 8.79795 2.29844C8.7979 1.02882 7.76918 0 6.50041 0C5.23125 0 4.20203 1.02882 4.20203 2.29839C4.20198 3.5676 5.2312 4.59677 6.50041 4.59677ZM12.6212 12.4738L10.0596 6.59918C9.80151 6.00683 9.25813 5.61376 8.63495 5.50796C8.54067 5.48309 4.46006 5.48269 4.36257 5.50881C3.74025 5.61492 3.19802 6.00798 2.94034 6.59958L0.379055 12.4734C0.303473 12.647 0.272269 12.8367 0.288255 13.0254C0.304241 13.2141 0.366915 13.3958 0.47063 13.5542C0.583317 13.7263 0.740425 13.8647 0.925326 13.9548C1.11023 14.0449 1.31604 14.0833 1.52099 14.066C1.72594 14.0487 1.9224 13.9763 2.08958 13.8565C2.25676 13.7367 2.38844 13.5739 2.47068 13.3854L3.43595 11.1719V22.7553C3.43595 23.4428 3.99317 24 4.68065 24C5.36854 24 5.92571 23.4428 5.92571 22.7553V14.9418H7.07497V22.7553C7.07497 23.4428 7.63219 24 8.31963 24C9.00666 24 9.56393 23.4428 9.56393 22.7557V11.1711L10.5296 13.3858C10.6184 13.5893 10.7646 13.7625 10.9504 13.8842C11.1362 14.0058 11.3534 14.0705 11.5755 14.0705C11.7648 14.0705 11.9512 14.0234 12.1178 13.9334C12.2844 13.8433 12.4259 13.7132 12.5296 13.5547C12.6335 13.3963 12.6962 13.2146 12.7122 13.0258C12.7282 12.8371 12.6969 12.6474 12.6212 12.4738Z" fill="white"/>
</svg>
